<?xml version="1.0"?><svg width="940.23999" height="850" xmlns="http://www.w3.org/2000/svg">
 <title>Egg</title>
 <defs>
  <filter id="filter3234">
   <feGaussianBlur id="feGaussianBlur3236" stdDeviation="5.203201"/>
  </filter>
 </defs>
 <metadata id="metadata7">image/svg+xml</metadata>
 <g>
  <title>Layer 1</title>
  <g externalResourcesRequired="false" id="layer1">
   <path fill="#000000" fill-rule="nonzero" stroke-width="0.3" stroke-linecap="round" stroke-miterlimit="4" id="path9394" d="m447.487,27.9534c-0.002991,-0.335699 1.733002,-0.684999 5.138,-1.0466c3.459991,-0.367399 8.765015,-0.598299 15.606995,-0.497398c6.934998,0.102299 15.796021,0.8109 25.944,2.186499c10.264008,1.391201 22.639984,3.981901 35.568024,8.1402c13.052979,4.198502 28.002991,10.227501 42.859985,18.1408c14.947021,7.961601 31.546997,19.435997 45.786011,33.378998c14.312988,14.017105 28.825989,33.069099 38.656006,53.737099c9.859009,20.727005 34.527954,7.149002 59.86499,11.145004c25.357971,3.998993 53.747986,11.425003 79.375,23.195999c25.598999,11.759003 53.489014,29.436005 74.719971,51.363007c21.210022,21.903992 39.634033,54.193985 48.241028,85.702988c8.593994,31.46402 9.28302,73.684998 -4.73999,105.330017c-13.944031,31.466003 -56.267029,43.459991 -61.584045,79.289001c-5.286987,35.623993 14.934998,68.035004 19.595032,105.379974c4.619019,37.007019 -2.406006,82.526001 -19.28302,117.376038c-16.695984,34.474976 -47.914001,69.83197 -82.109985,89.691956c-33.692993,19.567993 -79.073975,24.894043 -119.04303,26.835999c-39.348999,1.912048 -80.405945,-28.037964 -113.050964,-51.625977c-32.645996,-23.588013 -64.152008,-17.909973 -103.432007,-14.882996c-39.919006,3.076965 -85.028992,-4.393982 -121.171997,-18.997009c-36.627991,-14.799011 -78.735001,-35.98999 -101.725998,-66.578979c-23.251007,-30.937012 -26.923004,-72.467041 -50.207001,-101.575012c-23.507004,-29.388 -65.6101,-27.263977 -94.382805,-48.927002c-28.948299,-21.794983 -56.642098,-59.585999 -59.702458,-93.877014c-3.0767,-34.472992 15.825561,-79.634003 43.964662,-96.121979c28.219097,-16.535004 66.253597,-21.625 53.364597,-49.296021c-12.900902,-27.694 -13.011497,-68.40799 3.170998,-91.497986c16.164001,-23.06601 43.733002,-40.548004 67.546997,-50.061005c23.78801,-9.503006 51.162003,-14.619003 74.058014,-13.460999c22.863007,1.156006 19.869995,-24.674004 31.940979,-40.668701c12.003021,-15.904297 27.540009,-29.206299 41.532013,-38.744301c13.911987,-9.483398 28.770996,-16.424099 41.549011,-21.408501c12.66098,-4.939198 25.031982,-7.808998 35.211975,-9.754599c10.071014,-1.924601 19.046021,-2.750099 25.983002,-2.978899c6.834015,-0.2255 12.134003,-0.1415 15.598999,0.159399c3.411011,0.296301 5.154022,0.612301 5.157013,0.948c0.002991,0.335701 -1.733002,0.6845 -5.138,1.045c-3.460999,0.3664 -8.52301,0.9314 -15.309998,1.805c-6.878998,0.885201 -15.06601,2.246698 -24.985992,4.791601c-10.03302,2.573898 -21.059998,5.675301 -33.473022,11.1842c-12.531982,5.562099 -25.405975,12.090099 -38.96698,22.0611c-13.64502,10.031799 -26.369995,21.360596 -37.911011,37.606697c-11.602997,16.332001 -18.755005,47.668007 -41.634003,47.056007c-22.944,-0.615005 -44.429993,3.972 -68.056992,13.959c-23.645996,9.994995 -44.067001,22.367996 -59.863998,45.727997c-15.780006,23.334 -13.850006,47.281006 -0.577003,74.763c13.258995,27.453003 -31.577797,55.975983 -59.564098,72.816986c-27.945801,16.817017 -37.305601,43.69101 -33.896202,78.13501c3.3901,34.248993 23.199902,57.580994 52.307499,79.142975c28.940804,21.438049 75.054802,22.792053 98.740807,52.037048c23.472,28.97998 27.731995,70.93396 51.134003,101.783997c23.148987,30.515991 55.889999,44.359985 92.598007,59.066956c36.166992,14.490051 71.051971,20.289001 110.945984,17.156006c39.274994,-3.083008 85.935974,-4.528992 118.580994,19.059021c32.645996,23.588989 59.226013,49.263 98.578979,47.40802c39.993042,-1.88501 75.140015,-4.129028 108.907043,-23.608032c34.218994,-19.73999 56.622986,-45.430969 73.454956,-79.796997c17.024048,-34.755981 22.240051,-68.031006 17.848022,-105.046021c-4.434021,-37.372986 -24.344971,-75.515991 -18.781006,-111.096985c5.598022,-35.797974 49.738037,-52.975983 63.98999,-84.315979c14.327026,-31.506012 12.990051,-60.822998 4.765015,-92.384003c-8.248962,-31.651001 -21.934021,-56.325012 -42.861023,-78.55101c-20.944946,-22.245987 -43.590942,-36.655991 -69.014954,-48.85199c-25.395996,-12.182007 -49.38501,-19.266006 -74.713989,-23.264999c-25.30304,-3.99501 -60.071045,0.824997 -69.423035,-20.106003c-9.338989,-20.900002 -20.950012,-36.773003 -34.856995,-51.199806c-13.828979,-14.344795 -27.698975,-24.502495 -42.35199,-32.991295c-14.569031,-8.440102 -27.887024,-14.419003 -40.738037,-19.211502c-12.733948,-4.7491 -23.84198,-7.6726 -34.005981,-9.701599c-10.054993,-2.007 -18.341003,-3.3022 -25.23999,-4.0625c-6.796997,-0.7491 -11.86499,-1.170601 -15.329987,-1.470501c-3.411011,-0.2953 -5.154022,-0.610699 -5.157013,-0.9464c0,0 0,0 0,0"/>
   <path fill="#fffffa" fill-rule="nonzero" stroke-width="0.3" stroke-linecap="round" stroke-miterlimit="4" d="m448.539001,29.430599c-79.022003,-0.675499 -159.177002,44.258503 -183.838013,120.187397c-76.188995,-11.371994 -199.609886,54.195007 -150.631989,142.206009c27.429001,54.354004 -81.861599,44.365997 -86.1049,103.132996c-36.09326,72.585999 42.167797,148.832001 112.317898,162.336029c65.195007,17.862 47.725006,121.967957 115.108002,148.082947c66.090012,52.882019 158.093002,70.925049 234.62001,44.106995c62.109985,13.037048 100.197998,86.732056 169.747009,77.240051c109.10199,9.167969 203.776978,-82.897034 202.779968,-190.893005c11.343018,-68.006042 -61.447998,-143.006012 18.197021,-182.59201c67.567993,-65.266998 34.627014,-187.218994 -41.195007,-241.014999c-52.643982,-39.265015 -119.367981,-56.255005 -182.530029,-53.949005c-30.060974,-84.185005 -125.020996,-131.197002 -208.469971,-128.843403z" id="path2160"/>
   <path fill="#ffba00" fill-rule="nonzero" stroke-width="0.3" stroke-linecap="round" stroke-miterlimit="4" id="path2199" d="m656.487,414.802002a165.746994,142.889999 0 1 1 -331.494995,0a165.746994,142.889999 0 1 1 331.494995,0z"/>
   <path opacity="0.642202" fill="#f5f5f5" fill-rule="nonzero" stroke-width="0.3" stroke-linecap="round" stroke-miterlimit="4" filter="url(#filter3234)" d="m485.699005,281.394989c-55.287018,0.610016 -111.071991,29.567017 -138.437012,78.594025c-25.55899,44.997986 -15.10498,105.622986 21.125,141.75c-21.945984,-39.537018 -23.406982,-90.745026 -0.343994,-130.219025c28.897003,-52.184998 87.537994,-83.574982 146.465973,-85.955994c4.829041,-0.231995 9.669006,-0.298004 14.503052,-0.169006c-14.197021,-3.050995 -28.758026,-4.373993 -43.313019,-4z" id="path2236"/>
  </g>
 </g>
</svg>